<?xml version="1.0" encoding="UTF-8"?>
<svg id="Layer_1" data-name="Layer 1" xmlns="http://www.w3.org/2000/svg" viewBox="0 0 266.88 155.65">
  <defs>
    <style>
      .cls-1 {
        letter-spacing: -.02em;
      }

      .cls-2 {
        fill: #b8c9a9;
        stroke: #97a88a;
        stroke-miterlimit: 10;
      }

      .cls-3 {
        fill: #231f20;
        font-family: BellMT, 'Bell MT';
        font-size: 40px;
      }

      .cls-4 {
        letter-spacing: .02em;
      }

      .cls-5 {
        letter-spacing: .01em;
      }
    </style>
  </defs>
  <g id="Generative_Object" data-name="Generative Object">
    <g>
      <path class="cls-2" d="M103.96,71.91c2.15,2.06,6.55,6.02,6.95,8.81-3.38-1.19-6.18-3.15-9.56-4.81-6.65-3.26-13.71-6.43-21.72-5.21,7.22,2.13,14.91,2.63,21.72,6.01,2.68,1.33,5.25,4.05,7.82,5.61-.11.02-.79,1.7-1.3,1.6-1.2-.23-4.8-2.91-6.08-3.2-4.98-1.13-10.12-1.81-15.2-2.4-9.82-1.15-39.75,1.78-39.97-12.82-.11-7.66,13.02-12.34,20.42-12.01,10.21.45,29.87,11.64,36.92,18.42Z"/>
      <path class="cls-2" d="M86.59,79.12c4.7.49,17.12,3.23,20.85,5.61-9.26,1.17-18.9-.47-28.24.8-.38.05-6.06.9-4.34,2.4l34.32-1.6c.07.14,2.02,1.23.43,2.4-10.98-.3-21.31,2.08-31.71,4.81-6.59,1.73-23.2,9.25-28.24,8.81-10.45-.92-16.9-17.07-5.21-23.23,9.04-4.77,12.81-.24,19.98,0,7.04.24,15.42-.7,22.15,0Z"/>
      <path class="cls-2" d="M78.77,113.56c-8.51,5.85-17.19,17.63-27.8,5.61-.55-12.93,14.95-21.3,26.93-24.83,9.15-2.69,23.76-5.47,33.01-2.8-3.64,2.08-11.69,1.44-13.47,5.21l15.2-2.8c-13.77,4.49-22.65,11.9-33.88,19.62Z"/>
      <path class="cls-2" d="M131.76,59.89h.87c-.36,3.24.14,6.59-1.74,9.61-5.02-.04-13.27,1.89-15.64,6.01-3.62,6.29-.12,12-1.74,18.42,3.62-.19,11.14,4.4,13.47,4.41,1.04,0,4.59-3.57,7.38-1.6-1.88,1.5-4.35.64-6.08,4-4.62-3.07-9.35,14.76-10.86,14.42-.33-5.17,4.13-10.23,6.52-14.82l-2.17-2c-10.03,4.82-21.65,20.96-23.89,31.24l-.87-.8c5.98-10.64,9.3-21.84,19.11-30.84-7.33,2.11-12.84,12.67-18.68,15.62-1.01.51-1.85,1.99-2.17-.4l18.68-17.22c-11.42,2.85-26.07,10.66-34.32,18.42l-.87-.8c11.23-7.72,20.11-15.14,33.88-19.62l-15.2,2.8c1.78-3.77,9.82-3.13,13.47-5.21-9.26-2.67-23.86.11-33.01,2.8v-.8c10.4-2.72,20.74-5.11,31.71-4.81,1.58-1.17-.37-2.26-.43-2.4-.5-1.1-.83-1.03-1.74-1.6-3.73-2.38-16.15-5.12-20.85-5.61v-.8c5.09.6,10.23,1.28,15.2,2.4,1.29.29,4.88,2.97,6.08,3.2.51.1,1.2-1.58,1.3-1.6,1.11-.24.64,1.17,1.3,1.6.67-.75.57-2.27.43-3.2-.4-2.79-4.81-6.75-6.95-8.81l.87-.8c2.51,2.03,4.8,3.64,6.52,6.41,3.48-5.02-6.59-12.72-10.86-16.02h1.74l11.73,12.01c1.67.39.59-2.28.43-2.8-1.75-5.88-14.41-14.37-17.81-19.62-.38-.59-2.09-2.65,0-2.4,6.56,3.96,14.04,17.55,18.68,21.23,1.66,1.31,1.7,1.96,3.48,0,.6-2.78-16.64-32.37-19.98-35.64l.87-.8c.77,1.94,5.66,6.77,6.95,9.21,1.76,3.34,12.74,26.55,14.34,26.83,2.87.5,1.6-3.64,1.3-5.21-1.63-8.54-12.02-17.01-10.43-25.63l14.34,30.04c3.21-9.82-3.02-19.6-3.91-28.43-.52-5.21,1.08-10.7.87-15.62h.87c-2.7,15.65,5.24,28.25,4.34,43.65,3.11.77,3.27-6.45,3.48-8.41Z"/>
      <path class="cls-2" d="M136.11,99.14l1.74-.4,19.55,16.42c-4.23-7.11-12.21-11.14-17.81-17.62.7.08.88-.18.87-.8,8.34,5.64,19,9.16,27.37,14.42,7.24,4.54,28.09,21.58,12.16,28.03-20.48,8.31-39.08-26.38-43.87-40.05Z"/>
      <path class="cls-2" d="M128.29,100.74c-2.22,4.31-3.28,18.72-4.34,24.03-2.9,14.54-5.77,38.49-26.06,16.82-.25-1.13.11-2.73,0-4-.24-2.86-.64-5.08,0-8.01,2.24-10.27,13.86-26.41,23.89-31.24l2.17,2c-2.38,4.59-6.84,9.65-6.52,14.82,1.51.34,6.24-17.49,10.86-14.42Z"/>
      <path class="cls-2" d="M209.09,119.96c-2.93,7.41-13.73,4.33-19.55,2.4-12.6-4.16-33.01-20.02-45.61-26.43l38.23,10.81c1.15-2.79-32.94-10.67-35.62-13.62-.05-.06,1.07-.64.87-1.2,8.13,1.48,16.65,1.57,24.76,3.2,10.61,2.14,42.75,10.11,36.92,24.83Z"/>
      <path class="cls-2" d="M135.24,99.94c2.36,10.93,30.17,42.27,10.86,49.66-14.21,5.44-21.63-14.36-21.29-24.83.08-2.45,4.31-22.29,5.21-23.63,4.25-6.31,3.53,11.72,6.08,12.01.94-3.88-2.76-9.74-.87-13.22Z"/>
      <path class="cls-2" d="M148.27,77.51v2.4c0,.53-.04,1.08,0,1.6.06.76-.34,1.63.87,1.6,0,1.24-1.56.31-1.74,1.6-.09.68-.22,2.11.43,2.4,2.23.99,35.19-2.64,35.19.4-8.69,1.29-17.83-.36-26.5.4-4.31.38-6.66.65-9.12,2.4-.21.15-1.4-.35-1.74.4.27.69,1.7,1.11,1.74,1.2.2.56-.92,1.14-.87,1.2,2.68,2.94,36.77,10.83,35.62,13.62l-38.23-10.81c-1.02-.52-2.22-.78-3.04-1.6-1.51.67-.44,2.28-.43,2.4.01.62-.17.88-.87.8-1.25-1.45-1.64-.55-1.74-3.2,1.27-.99,6.73-4.82,6.95-6.01.41-2.19-2.41-3.2-1.74-4,.78-.93,2.87.12,3.48-.8.17-.26-.11-5.68,0-6.01.44.11,1.18.02,1.74,0Z"/>
      <path class="cls-2" d="M139.58,97.54c5.6,6.49,13.58,10.51,17.81,17.62l-19.55-16.42-1.74.4c-.97-.13-.72.53-.87.8-1.89,3.48,1.81,9.34.87,13.22-2.55-.3-1.84-18.32-6.08-12.01-.9,1.33-5.13,21.18-5.21,23.63h-.87c1.06-5.31,2.13-19.72,4.34-24.03,1.73-3.36,4.2-2.5,6.08-4,1.11-.89,2.38-1.55,3.48-2.4.1,2.65.48,1.75,1.74,3.2Z"/>
      <path class="cls-2" d="M97.01,128.78c-6.01,10.69-16.76,19.6-28.67,8.81-.12-.44.05-1.08,0-1.6-.7-7.87,5.5-16.18,11.29-21.63,8.25-7.76,22.9-15.57,34.32-18.42l-18.68,17.22c.33,2.39,1.16.91,2.17.4,5.84-2.94,11.35-13.51,18.68-15.62-9.82,8.99-13.13,20.2-19.11,30.84Z"/>
      <path class="cls-2" d="M101.36,75.91v.8c-6.81-3.37-14.5-3.88-21.72-6.01,8.01-1.23,15.07,1.94,21.72,5.21Z"/>
      <path class="cls-2" d="M110.91,80.72c.13.93.23,2.45-.43,3.2-.67-.44-.19-1.84-1.3-1.6-2.57-1.55-5.14-4.28-7.82-5.61v-.8c3.38,1.66,6.18,3.62,9.56,4.81Z"/>
      <path class="cls-2" d="M107.44,84.72c.9.58,1.23.51,1.74,1.6l-34.32,1.6c-1.72-1.51,3.97-2.35,4.34-2.4,9.34-1.28,18.98.37,28.24-.8Z"/>
      <path class="cls-2" d="M78.77,26.25c5.69-.67,12.92,2.27,17.38,5.61.34.25,2.13,1.93,2.61,2.4,3.34,3.28,20.58,32.86,19.98,35.64-1.77,1.96-1.82,1.31-3.48,0-4.64-3.67-12.12-17.27-18.68-21.23-2.09-.25-.38,1.81,0,2.4,3.4,5.25,16.06,13.75,17.81,19.62.16.52,1.23,3.2-.43,2.8l-11.73-12.01-8.25-4.81c.43,2.64,4.78,3.46,6.52,4.81,4.27,3.3,14.34,11,10.86,16.02-1.72-2.77-4.01-4.38-6.52-6.41-19.61-15.87-30.19-13.1-34.75-39.25,2.79-3.21,4.06-5.06,8.69-5.61Z"/>
      <path class="cls-2" d="M123.08,24.65c.21,4.92-1.39,10.41-.87,15.62.89,8.83,7.12,18.62,3.91,28.43l-14.34-30.04c-1.59,8.62,8.8,17.09,10.43,25.63.3,1.57,1.57,5.71-1.3,5.21-1.59-.28-12.57-23.49-14.34-26.83-1.29-2.44-6.18-7.28-6.95-9.21-3.6-9.01,1.01-30.09,15.2-25.63,7.82,2.46,7.99,10.83,8.25,16.82Z"/>
      <path class="cls-2" d="M132.63,69.5c-.56-.06-1.17,0-1.74,0,1.88-3.02,1.38-6.38,1.74-9.61.82-7.32,1.86-14.36-.43-21.63-1.17,0-.21,19.49-.43,21.63-.2,1.96-.36,9.18-3.48,8.41.9-15.4-7.05-28-4.34-43.65,4.3-24.94,27.95-23.49,24.33-1.2-.61,3.72-5.77,11.02-6.95,15.22-2.84,10.15-3.79,21.88-8.69,30.84Z"/>
      <path class="cls-2" d="M132.63,59.89h-.87c.22-2.14-.74-21.63.43-21.63,2.3,7.27,1.25,14.3.43,21.63Z"/>
      <path class="cls-2" d="M102.22,61.5h-1.74c-1.74-1.34-6.09-2.17-6.52-4.81l8.25,4.81Z"/>
      <path class="cls-2" d="M221.25,83.12c2.46,2.55,3.09,3.57,2.61,7.21-.38,2.84-4.75,7.53-7.38,8.81-14.07,6.83-31.22-2.92-45.18-5.61-7.77-1.49-16.23-1.02-23.89-3.2,2.46-1.75,4.81-2.03,9.12-2.4,8.66-.76,17.81.89,26.5-.4,0-3.04-32.96.59-35.19-.4-.66-.29-.53-1.72-.43-2.4,15.15.24,32.41-5.47,46.92-6.41,6.95-.45,21.91-.41,26.93,4.81Z"/>
      <path class="cls-2" d="M194.32,77.51c-14.29,3.16-30.53,3.95-45.18,5.61-1.21.03-.81-.84-.87-1.6l41.7-12.41-41.7,10.81v-2.4c10.11-.35,38.27-21.01,49.09-24.03,6.1-1.7,18.86-2.91,23.02,2.8,9.14,12.53-17.06,19.23-26.06,21.23Z"/>
      <path class="cls-2" d="M194.32,77.51v.8c-14.51.94-31.76,6.64-46.92,6.41.18-1.29,1.74-.36,1.74-1.6,14.65-1.65,30.89-2.44,45.18-5.61Z"/>
      <path class="cls-2" d="M148.27,81.52c-.04-.53,0-1.07,0-1.6l41.7-10.81-41.7,12.41Z"/>
      <path class="cls-2" d="M147.4,75.91c.3-.65-1.2-.73-.43-1.6,1.89-2.17,11.22-4.61,13.47-7.61-2.96-1.31-16.8,10.78-16.51,4.81.18-3.74,30.16-21.57,34.75-24.83-8.62-.6-34.54,23.88-36.92,24.43-.61.14-1.81.17-2.17-.4,1.55-1.66,2.33-4.2,3.48-6.01,6.04-9.53,31.54-34.36,43.01-36.84,8.29-1.79,17.59-.44,16.94,9.21-1.1,16.31-40.36,34.42-55.6,38.85Z"/>
      <path class="cls-2" d="M141.32,63.9c-1.05,2.12-3.14,4.31-4.34,6.41-.63-.26-1.07-.61-1.74-.8,3.53-11.78,5.03-24.08,9.56-35.64,2.82-7.19,15.68-35.44,26.06-20.82,13.61,19.15-19.55,34.27-27.37,49.26l10.86-22.03h-1.74c-4.7,7.47-7.44,15.86-11.29,23.63Z"/>
      <path class="cls-2" d="M147.4,75.91c-.28.6-.66.98-.87,1.6-2.27-.55-4.25-4.53-4.78-4.81-.93-.48-1.66,1.27-2.61.8-.66-.33-.76-2.62-2.17-3.2,1.2-2.1,3.29-4.29,4.34-6.41-.09,2.1.19,1.59,1.74.8-1.14,1.8-1.92,4.34-3.48,6.01.37.57,1.57.54,2.17.4,2.39-.55,28.31-25.03,36.92-24.43-4.59,3.26-34.57,21.09-34.75,24.83-.29,5.98,13.54-6.11,16.51-4.81-2.25,3-11.57,5.44-13.47,7.61-.76.87.74.95.43,1.6Z"/>
      <g>
        <path class="cls-2" d="M130.9,69.5c.57,0,1.18-.06,1.74,0,2.11.22,2.48-.04,2.61,0,.66.19,1.1.54,1.74.8,1.41.59,1.51,2.88,2.17,3.2.95.47,1.68-1.28,2.61-.8.53.28,2.51,4.26,4.78,4.81-.11.33.17,5.75,0,6.01-.61.92-2.69-.13-3.48.8-.68.8,2.15,1.82,1.74,4-.22,1.18-5.68,5.01-6.95,6.01-1.09.85-2.36,1.51-3.48,2.4-2.79-1.97-6.34,1.6-7.38,1.6-2.33,0-9.85-4.6-13.47-4.41,1.62-6.42-1.88-12.13,1.74-18.42,2.37-4.12,10.62-6.05,15.64-6.01Z"/>
        <polygon class="cls-2" points="116.56 80.72 117.43 81.52 117.43 82.32 116.56 82.32 116.56 80.72"/>
      </g>
    </g>
  </g>
  <text class="cls-3" transform="translate(3.27 93.05)"><tspan class="cls-4" x="0" y="0">F</tspan><tspan x="25.8" y="0">leu</tspan><tspan class="cls-5" x="74.55" y="0">r</tspan><tspan x="90.92" y="0">s </tspan><tspan class="cls-1" x="116.76" y="0">b</tspan><tspan x="136.07" y="0">lomster </tspan></text>
</svg>